# xmcd CD database file generated by Grip 3.3.1
# 
# Track frame offsets:
#       150
#       4453
#       7456
#       11359
#       17779
#       21546
#       27470
#       31994
#       36407
#       45579
#       49117
#       54976
#       70428
#       76332
#       146342
#       180850
#       219441
#       269192
# 
# Disc length: 3846 seconds
# 
# Revision: 1
# Processed by: cddbd v1.5.2PL0 Copyright (c) Steve Scherf et al.
# Submitted via: Grip 3.3.1
# 
DISCID=fc0f0412
DTITLE=Alexander Scriabin - Scriabin - The Complete Works [CD10)
DYEAR=1900
DGENRE=Classical
TTITLE0=Variations on a Russian Theme for string quartet - 1. Theme: Adag
TTITLE0=io
TTITLE1=Variations on a Russian Theme for string quartet - 2. Variation I
TTITLE1=Allegretto
TTITLE2=Variations on a Russian Theme for string quartet - 3. Variation I
TTITLE2=I. Allegretto
TTITLE3=Variations on a Russian Theme for string quartet - 4. Variation I
TTITLE3=II. Andantino
TTITLE4=Variations on a Russian Theme for string quartet - 5. Variation I
TTITLE4=V. Allegro
TTITLE5=Variations on a Russian Theme for string quartet - 6. Variation V
TTITLE5=Canon
TTITLE6=Variations on a Russian Theme for string quartet - 7. Variation V
TTITLE6=I. Allegretto
TTITLE7=Variations on a Russian Theme for string quartet - 8. Variation V
TTITLE7=II. Allegro
TTITLE8=Variations on a Russian Theme for string quartet - 9. Variation V
TTITLE8=III. Andante
TTITLE9=Variations on a Russian Theme for string quartet - 10. Variation 
TTITLE9=IX. Fugato: Allegro
TTITLE10=Variations on a Russian Theme for string quartet -11. Variation  
TTITLE10=X. Finale: Allegro
TTITLE11=Andante and Scherzo for strings - I. Andante (Anh.20)
TTITLE12=Andante and Scherzo for strings - II. Scherzo (Anh.18)
TTITLE13=Symphonic poem in D minor, WoO 24
TTITLE14=Symphonic poem in F sharp minor, op.20 - I. Allegro
TTITLE15=Symphonic poem in F sharp minor, op.20 - II. Andante
TTITLE16=Symphonic poem in F sharp minor, op.20 - III. Allegro moderato
TTITLE17=Rèverie, op.24
EXTD=
EXTT0=
EXTT1=
EXTT2=
EXTT3=
EXTT4=
EXTT5=
EXTT6=
EXTT7=
EXTT8=
EXTT9=
EXTT10=
EXTT11=
EXTT12=
EXTT13=
EXTT14=
EXTT15=
EXTT16=
EXTT17=
PLAYORDER=
